# xmcd
#
# Track frame offsets:
#	150
#	11489
#	20746
#	31227
#	40165
#	55865
#	67524
#	86122
#	102014
#	112275
#	128140
#	139134
#	153274
#	165150
#	178394
#	189623
#	204324
#	213847
#	226275
#	237221
#	256477
#
# Disc length: 3651 seconds
#
# Revision: 1
# Processed by: cddbd v1.5.2PL0 Copyright (c) Steve Scherf et al.
# Submitted via: EasyCDDAExtractor 11.0.2.1
#
DISCID=160e4115
DTITLE=Various Artist - Transit Music Country Nº 5
DYEAR=1900
DGENRE=
TTITLE0=Kenny Rogers - Me And Bobby McGee
TTITLE1=Merle Travis - 16 Tons
TTITLE2=Fidlin' Frenchie Burke - Big Mamou
TTITLE3=The Big Banjo Band - California, Here I Come
TTITLE4=The Eagles - Take It Easy
TTITLE5=Tony Joe White - Roosevelt and Ira Lee
TTITLE6=Mark Knopfler and Chet Atkins - Just One Time
TTITLE7=Lynn Anderson - The Devil Went Down To Georgia
TTITLE8=Creedence Clearwater Revival - Bad Moon
TTITLE9=The Texas Tornados - Soy De San Luis
TTITLE10=Fidlin' Frenchie Burke - Devil's Daughter
TTITLE11=Glen Campbell - Rhinestone Cowboy
TTITLE12=The Nightriders - Mean Bear
TTITLE13=Rusty Draper - Gentle On My Mind
TTITLE14=Bobby Bare - Music City U.S.A.
TTITLE15=Red Simpson - I'm Truck
TTITLE16=The Dillards - Never See My Home Again
TTITLE17=Billie Jo Spears - "57 Chevrolet"
TTITLE18=America - Don't Cross The River
TTITLE19=The Eagles - Peaceful, Easy Feeling
TTITLE20=Fidlin' Frenchie Burke - Diggy Liggy Lo
EXTD=
EXTT0=
EXTT1=
EXTT2=
EXTT3=
EXTT4=
EXTT5=
EXTT6=
EXTT7=
EXTT8=
EXTT9=
EXTT10=
EXTT11=
EXTT12=
EXTT13=
EXTT14=
EXTT15=
EXTT16=
EXTT17=
EXTT18=
EXTT19=
EXTT20=
PLAYORDER=
